# xmcd
#
# Track frame offsets:
#	150
#	13437
#	27924
#	45156
#	62773
#	79304
#	97217
#	110556
#	126511
#	141908
#	162428
#	177734
#	195977
#
# Disc length: 2885
#
# Revision: 1
# Processed by: cddbd v1.5.1PL0 Copyright (c) Steve Scherf et al.
# Submitted via: CDex 1.40Release
# Normalized: r0:TDELIM( - )
#
DISCID=be0b430d
DTITLE=Artist - Todays Country Hits Vol #3
DYEAR=1900
DGENRE=Country
TTITLE0=Arron Tippin - Kiss This
TTITLE1=Brooks and Dunn - He's Got You
TTITLE2=Collin Raye - Anyone Else
TTITLE3=Garth Brooks - Rodeo
TTITLE4=George Straight - Livin and Livin Well
TTITLE5=Kenny Chesney - I Lost It
TTITLE6=Martina McBride - I Love You
TTITLE7=Phil Vassar - That's When I Love You
TTITLE8=SheDaisy - What A Woman Needs
TTITLE9=Steve Holy - Blue Moon
TTITLE10=Toby Keith - My List
TTITLE11=Travis Tritt - Great Day To Be Alive
TTITLE12=Willie Nelson - Mendocino County Line
EXTD=ID3G: 2
EXTT0=
EXTT1=
EXTT2=
EXTT3=
EXTT4=
EXTT5=
EXTT6=
EXTT7=
EXTT8=
EXTT9=
EXTT10=
EXTT11=
EXTT12=
PLAYORDER=
